<?xml version="1.0" encoding="UTF-8"?>
<svg xmlns="http://www.w3.org/2000/svg" width="108" height="80" viewBox="0 0 108 80" role="img" aria-label="Logo">
  <defs>
    <linearGradient id="g" x1="0" x2="1" y1="0" y2="0">
      <stop offset="0%" stop-color="#c21c21" />
      <stop offset="100%" stop-color="#e02727" />
    </linearGradient>
  </defs>
  <path d="M0 18 C 30 12 78 4 108 0 L108 80 L0 80 Z" fill="url(#g)" />
  <g fill="#ffffff" font-family="Arial, Helvetica, sans-serif">
    <text x="54" y="42" font-size="22" font-weight="700" text-anchor="middle">HiQo</text>
    <text x="54" y="58" font-size="12" text-anchor="middle">solutions</text>
  </g>
<path d="M107.6 0C107.6 0 70.8602 15.5867 0.399994 21.2385V80H107.6V0Z" fill="#D61F26"/>
<path d="M51.8903 50.0875H58.6469V57.3275H61.1408V40.7542H58.6469V47.8312H51.8903V40.7542H49.3949V57.3275H51.8903V50.0875Z" fill="white"/>
<path d="M82.5077 53.8948C82.6527 53.4607 82.7579 53.0145 82.8219 52.5615C82.8956 52.0337 82.9344 51.5017 82.938 50.9689C82.947 50.3852 82.9499 49.7452 82.9499 49.043C82.9499 48.2528 82.942 47.5353 82.9261 46.8904C82.9168 46.3015 82.8626 45.7141 82.7638 45.1333C82.6769 44.625 82.5201 44.131 82.2978 43.6652C82.0619 43.1909 81.7479 42.7593 81.3687 42.3882C80.8104 41.826 80.146 41.379 79.4138 41.0726C78.6463 40.7626 77.8242 40.6085 76.9959 40.6193C76.1709 40.6077 75.352 40.7618 74.5883 41.0726C73.8629 41.3809 73.2053 41.8279 72.6528 42.3882C72.2724 42.7586 71.9578 43.1903 71.7222 43.6652C71.499 44.1316 71.3383 44.6252 71.2443 45.1333C71.139 45.7134 71.0808 46.301 71.0701 46.8904C71.0542 47.5333 71.0463 48.2509 71.0463 49.043C71.0463 49.8351 71.0542 50.5521 71.0701 51.1941C71.0807 51.7835 71.1389 52.371 71.2443 52.9511C71.3379 53.4593 71.4986 53.953 71.7222 54.4193C71.9572 54.8945 72.2719 55.3264 72.6528 55.6963C73.2037 56.2585 73.8617 56.7057 74.5883 57.0119C75.3518 57.3236 76.1707 57.4788 76.9959 57.4682C77.6289 57.4716 78.2588 57.3802 78.8644 57.197C79.4385 57.0265 79.9806 56.7638 80.4695 56.4193L82.1147 58.0741L83.5113 56.677L81.8824 55.0711C82.152 54.7144 82.3631 54.3173 82.5077 53.8948ZM80.3757 51.5807C80.3409 52.1211 80.2018 52.6497 79.9662 53.1378L78.3508 51.5333L76.9497 52.9274L78.7021 54.6756C78.2052 55.03 77.6073 55.2169 76.9959 55.2089C76.5173 55.2134 76.043 55.118 75.6038 54.9289C75.1948 54.7578 74.825 54.5058 74.5169 54.1881C74.3165 53.9754 74.1466 53.7361 74.0121 53.477C73.8666 53.1752 73.7662 52.8538 73.7144 52.523C73.6361 52.0605 73.5894 51.5932 73.5744 51.1244C73.5506 50.5748 73.5372 49.88 73.5372 49.043C73.5372 48.2059 73.5506 47.5111 73.5744 46.9615C73.5895 46.4927 73.6363 46.0255 73.7144 45.563C73.767 45.2323 73.8673 44.911 74.0121 44.6089C74.1474 44.3503 74.3172 44.1111 74.5169 43.8978C74.8257 43.581 75.1953 43.3291 75.6038 43.157C76.0446 42.974 76.5175 42.8797 76.9951 42.8797C77.4728 42.8797 77.9457 42.974 78.3865 43.157C79.074 43.4371 79.6377 43.9533 79.9752 44.6119C80.1199 44.914 80.2202 45.2353 80.2729 45.5659C80.3542 46.0282 80.4039 46.4955 80.4218 46.9644C80.4446 47.5146 80.4561 48.2084 80.4561 49.0459C80.4571 50.1126 80.4307 50.957 80.3771 51.5793L80.3757 51.5807Z" fill="white"/>
<path d="M95.4402 48.7955C95.2498 48.0383 94.8638 47.3437 94.3205 46.7807C93.9027 46.3564 93.4068 46.0159 92.8599 45.7777C92.202 45.4974 91.491 45.362 90.7755 45.3807C90.0648 45.3615 89.3585 45.497 88.7059 45.7777C88.1651 46.0154 87.6749 46.3539 87.2617 46.7748C86.7176 47.3372 86.3316 48.032 86.1421 48.7896C85.7701 50.5231 85.7701 52.3153 86.1421 54.0488C86.3294 54.8073 86.7158 55.5026 87.2617 56.0637C87.6744 56.4866 88.1646 56.827 88.7059 57.0666C89.3585 57.3479 90.0646 57.4849 90.7755 57.4681C91.4909 57.4856 92.2017 57.3502 92.8599 57.0711C93.4052 56.8322 93.8994 56.4918 94.3161 56.0681C94.8612 55.5064 95.2475 54.8113 95.4357 54.0533C95.808 52.3198 95.808 50.5275 95.4357 48.794L95.4402 48.7955ZM93.2069 53.2533C93.1366 53.7788 92.9004 54.2685 92.5324 54.6518C92.3033 54.8818 92.0291 55.0624 91.7268 55.1824C91.4246 55.3024 91.1008 55.3593 90.7755 55.3496C90.4554 55.3568 90.1373 55.2986 89.8407 55.1786C89.5442 55.0585 89.2755 54.8793 89.0514 54.6518C88.6812 54.2696 88.4438 53.7795 88.3739 53.2533C88.1878 52.0341 88.1878 50.794 88.3739 49.5748C88.4434 49.0497 88.6809 48.5609 89.0514 48.1807C89.2764 47.9558 89.5457 47.7796 89.8424 47.6631C90.1391 47.5466 90.4568 47.4923 90.7755 47.5037C91.0978 47.4911 91.4193 47.5446 91.72 47.6608C92.0207 47.777 92.2942 47.9534 92.5235 48.1792C92.8918 48.5605 93.1282 49.049 93.1979 49.5733C93.384 50.7925 93.384 52.0326 93.1979 53.2518L93.2069 53.2533Z" fill="white"/>
<path d="M52.8178 66.6208C52.52 66.3556 52.0867 66.2016 51.5329 66.1542L50.6113 66.0756C50.2971 66.0431 50.0857 65.969 49.974 65.849C49.8616 65.7286 49.8017 65.5688 49.8073 65.4045C49.8045 65.3001 49.8272 65.1965 49.8733 65.1026C49.9195 65.0087 49.9877 64.9273 50.0723 64.8653C50.3056 64.7086 50.5851 64.6345 50.8659 64.6549C51.132 64.6533 51.3973 64.6862 51.655 64.7527C51.8939 64.8135 52.1165 64.9258 52.3071 65.0816L53.0426 64.3334C52.769 64.0927 52.4419 63.9201 52.0882 63.8297C51.6939 63.7259 51.2871 63.676 50.8793 63.6816C50.5893 63.6787 50.3007 63.7197 50.0231 63.8031C49.7721 63.8772 49.5359 63.994 49.3249 64.1482C49.1273 64.2961 48.9659 64.4865 48.8529 64.7053C48.7352 64.9413 48.676 65.2019 48.6802 65.4653C48.6802 65.9779 48.8291 66.3645 49.1268 66.6223C49.4246 66.8801 49.8534 67.0297 50.4043 67.0742L51.3378 67.1556C51.5577 67.1558 51.7709 67.2305 51.9423 67.3675C52.0027 67.4313 52.0496 67.5066 52.0803 67.5888C52.111 67.6709 52.1248 67.7584 52.121 67.846C52.1265 67.9724 52.0943 68.0976 52.0287 68.2059C51.963 68.3142 51.8667 68.4008 51.7517 68.4549C51.4693 68.5936 51.1568 68.6608 50.842 68.6505C50.5445 68.6499 50.2485 68.609 49.9621 68.529C49.6556 68.4427 49.379 68.2741 49.1626 68.0416L48.3898 68.8134C48.7026 69.1283 49.0911 69.3583 49.5184 69.4816C49.95 69.5964 50.3953 69.6528 50.842 69.649C51.1683 69.6509 51.4935 69.6116 51.8098 69.5319C52.0876 69.4661 52.35 69.3474 52.5825 69.1823C52.7932 69.029 52.9658 68.8299 53.0873 68.6001C53.2151 68.3524 53.2785 68.0769 53.2719 67.7986C53.2719 67.2781 53.1205 66.8855 52.8178 66.6208Z" fill="white"/>
<path d="M58.6021 64.3704C58.3963 64.1613 58.1522 63.9934 57.883 63.8756C57.5576 63.7378 57.2062 63.6711 56.8527 63.6801C56.501 63.6707 56.1515 63.7374 55.8283 63.8756C55.561 63.9945 55.3185 64.1623 55.1136 64.3704C54.8445 64.6482 54.6535 64.9916 54.5598 65.366C54.463 65.7902 54.4171 66.2244 54.4228 66.6593C54.4167 67.0982 54.4627 67.5363 54.5598 67.9645C54.6544 68.3386 54.8453 68.6817 55.1136 68.9601C55.3185 69.1682 55.561 69.336 55.8283 69.4549C56.1515 69.5931 56.501 69.6599 56.8527 69.6504C57.2062 69.6594 57.5576 69.5927 57.883 69.4549C58.1522 69.3371 58.3963 69.1692 58.6021 68.9601C58.8704 68.6817 59.0613 68.3386 59.156 67.9645C59.253 67.5363 59.299 67.0982 59.2929 66.6593C59.2986 66.2244 59.2527 65.7902 59.156 65.366C59.0622 64.9916 58.8712 64.6483 58.6021 64.3704ZM58.0512 67.5675C58.0169 67.8274 57.8995 68.0695 57.7162 68.2578C57.4861 68.4791 57.1786 68.6027 56.8586 68.6027C56.5386 68.6027 56.2311 68.4791 56.001 68.2578C55.8177 68.0696 55.7002 67.8275 55.666 67.5675C55.5757 66.9654 55.5757 66.3533 55.666 65.7512C55.7012 65.4915 55.8185 65.2497 56.001 65.0608C56.2347 64.8465 56.5408 64.7276 56.8586 64.7276C57.1764 64.7276 57.4825 64.8465 57.7162 65.0608C57.8986 65.2498 58.0159 65.4915 58.0512 65.7512C58.1411 66.3533 58.1411 66.9654 58.0512 67.5675Z" fill="white"/>
<path d="M62.1606 68.4089C62.0586 68.2608 62.0103 68.0827 62.0236 67.9037V61.394H60.8489V67.9733C60.8476 68.1823 60.8792 68.3903 60.9427 68.5896C61 68.7784 61.0974 68.9527 61.2285 69.1007C61.368 69.2539 61.5398 69.3743 61.7318 69.4533C61.9601 69.5447 62.2048 69.5891 62.4509 69.5837H63.1775V68.5837H62.6593C62.5683 68.5938 62.4762 68.5834 62.3898 68.5531C62.3035 68.5228 62.2251 68.4735 62.1606 68.4089Z" fill="white"/>
<path d="M67.9627 67.3036C67.9668 67.5016 67.9335 67.6986 67.8645 67.8844C67.8079 68.0373 67.7202 68.177 67.6069 68.2947C67.4984 68.4012 67.3663 68.4808 67.2213 68.5273C67.0712 68.5778 66.9137 68.6029 66.7553 68.6014C66.4473 68.61 66.1479 68.4996 65.92 68.2933C65.6922 68.0829 65.5805 67.757 65.5805 67.3021V63.7466H64.4058V67.474C64.4019 67.7795 64.4451 68.0838 64.5338 68.3762C64.6227 68.6571 64.7803 68.9116 64.9924 69.117C65.1701 69.2892 65.3814 69.4233 65.6133 69.511C65.8727 69.6076 66.1478 69.6553 66.4247 69.6518C66.7149 69.6514 67.0025 69.5961 67.2719 69.4888C67.5438 69.382 67.7862 69.2124 67.9791 68.994V69.5866H69.13V63.7481H67.9553L67.9627 67.3036Z" fill="white"/>
<path d="M72.3134 62.0845H71.1386V63.8623H70.4701V64.7511H71.1386V67.9585C71.1386 68.1645 71.1718 68.369 71.2369 68.5645C71.3003 68.755 71.4015 68.9308 71.5347 69.0815C71.6719 69.236 71.841 69.3593 72.0305 69.443C72.256 69.5394 72.4997 69.5864 72.7451 69.5808H73.4479V68.5808H72.964C72.8743 68.5896 72.7837 68.5781 72.6991 68.547C72.6145 68.516 72.5381 68.4662 72.4756 68.4015C72.3657 68.2591 72.3126 68.0813 72.3268 67.9023V64.7511H73.4553V63.8623H72.3134V62.0845Z" fill="white"/>
<path d="M76.1487 61.3569H74.9055V62.6014H76.1487V61.3569Z" fill="white"/>
<path d="M76.1159 63.748H74.9412V69.5806H76.1159V63.748Z" fill="white"/>
<path d="M81.8824 64.3704C81.6767 64.1612 81.4326 63.9932 81.1633 63.8756C80.8379 63.7378 80.4865 63.6711 80.133 63.6801C79.7813 63.6707 79.4318 63.7374 79.1086 63.8756C78.8412 63.9944 78.5988 64.1623 78.3939 64.3704C78.1248 64.6482 77.9337 64.9916 77.8401 65.366C77.7432 65.7902 77.6972 66.2244 77.7031 66.6593C77.6969 67.0982 77.7428 67.5364 77.8401 67.9645C77.9347 68.3386 78.1256 68.6817 78.3939 68.9601C78.5988 69.1682 78.8412 69.3361 79.1086 69.4549C79.4318 69.5931 79.7813 69.6599 80.133 69.6504C80.4865 69.6594 80.8379 69.5928 81.1633 69.4549C81.4326 69.3373 81.6767 69.1693 81.8824 68.9601C82.1507 68.6817 82.3416 68.3386 82.4363 67.9645C82.5333 67.5363 82.5793 67.0982 82.5732 66.6593C82.5789 66.2244 82.533 65.7902 82.4363 65.366C82.3426 64.9916 82.1516 64.6482 81.8824 64.3704ZM81.3315 67.5675C81.2972 67.8274 81.1798 68.0695 80.9965 68.2578C80.8845 68.3719 80.7499 68.4615 80.6012 68.5209C80.4526 68.5803 80.2931 68.6083 80.133 68.603C79.9747 68.6074 79.8173 68.5789 79.6707 68.5195C79.5241 68.4601 79.3915 68.371 79.2813 68.2578C79.0979 68.0696 78.9805 67.8275 78.9463 67.5675C78.8564 66.9654 78.8564 66.3533 78.9463 65.7512C78.9815 65.4915 79.0988 65.2497 79.2813 65.0608C79.515 64.8465 79.8211 64.7276 80.1389 64.7276C80.4567 64.7276 80.7628 64.8465 80.9965 65.0608C81.1789 65.2498 81.2962 65.4915 81.3315 65.7512C81.4218 66.3533 81.4218 66.9654 81.3315 67.5675Z" fill="white"/>
<path d="M88.3069 64.2103C88.1262 64.0404 87.9138 63.9075 87.6816 63.8192C87.1439 63.6283 86.555 63.6367 86.023 63.8429C85.7513 63.9499 85.5089 64.1195 85.3158 64.3377V63.7451H84.1634V69.5777H85.3381V66.0221C85.3381 65.5777 85.4572 65.2488 85.6939 65.0384C85.9272 64.8293 86.2316 64.716 86.5456 64.7214C86.8545 64.7124 87.1545 64.8247 87.3808 65.034C87.6072 65.2384 87.7203 65.5703 87.7203 66.0221V69.5777H88.895V65.8562C88.8977 65.5503 88.8546 65.2457 88.767 64.9525C88.6772 64.6713 88.5192 64.4164 88.3069 64.2103Z" fill="white"/>
<path d="M94.5648 66.6208C94.267 66.3557 93.8337 66.2016 93.2799 66.1542L92.3582 66.0757C92.0441 66.0431 91.8326 65.969 91.721 65.849C91.6086 65.7286 91.5486 65.5688 91.5542 65.4045C91.5515 65.3001 91.5742 65.1965 91.6203 65.1026C91.6664 65.0087 91.7347 64.9273 91.8193 64.8653C92.0526 64.7086 92.3321 64.6345 92.6128 64.6549C92.879 64.6534 93.1443 64.6862 93.4019 64.7527C93.6404 64.8137 93.8625 64.9259 94.0526 65.0816L94.7881 64.3334C94.5146 64.0926 94.1875 63.9199 93.8337 63.8297C93.4389 63.7258 93.0316 63.6759 92.6232 63.6816C92.3333 63.6787 92.0447 63.7196 91.7671 63.8031C91.5177 63.8778 91.283 63.9945 91.0733 64.1482C90.8758 64.2961 90.7144 64.4865 90.6013 64.7053C90.4837 64.9413 90.4245 65.2019 90.4286 65.4653C90.4286 65.9779 90.5775 66.3645 90.8753 66.6223C91.1731 66.8801 91.6019 67.0297 92.1528 67.0742L93.0863 67.1557C93.3061 67.1558 93.5194 67.2305 93.6908 67.3675C93.7512 67.4314 93.7981 67.5066 93.8288 67.5888C93.8595 67.671 93.8733 67.7584 93.8695 67.846C93.8749 67.9724 93.8428 68.0976 93.7771 68.2059C93.7115 68.3142 93.6151 68.4008 93.5002 68.4549C93.2178 68.5937 92.9053 68.6608 92.5905 68.6505C92.293 68.6499 91.997 68.6091 91.7106 68.529C91.4036 68.443 91.1264 68.2743 90.9095 68.0416L90.1368 68.8134C90.4493 69.1292 90.8378 69.3603 91.2654 69.4845C91.697 69.5994 92.1422 69.6557 92.589 69.6519C92.9153 69.6539 93.2405 69.6145 93.5568 69.5349C93.8346 69.4691 94.097 69.3503 94.3295 69.1853C94.5401 69.032 94.7127 68.8328 94.8343 68.6031C94.9615 68.3553 95.0245 68.0798 95.0174 67.8016C95.0184 67.2791 94.8675 66.8855 94.5648 66.6208Z" fill="white"/>
<path d="M67.7246 45.5051H65.1965V57.3333H67.7246V45.5051Z" fill="white"/>
<path d="M67.6814 40.7542H65.1532V43.2179H67.6814V40.7542Z" fill="white"/>
</svg>
